<?xml version="1.0" encoding="UTF-8" standalone="no"?>
<!-- Created with Inkscape (http://www.inkscape.org/) -->

<svg
   xmlns:dc="http://purl.org/dc/elements/1.1/"
   xmlns:cc="http://creativecommons.org/ns#"
   xmlns:rdf="http://www.w3.org/1999/02/22-rdf-syntax-ns#"
   xmlns:svg="http://www.w3.org/2000/svg"
   xmlns="http://www.w3.org/2000/svg"
   xmlns:sodipodi="http://sodipodi.sourceforge.net/DTD/sodipodi-0.dtd"
   xmlns:inkscape="http://www.inkscape.org/namespaces/inkscape"
   id="svg2"
   version="1.1"
   inkscape:version="0.48.4 r9939"
   width="666.95477"
   height="97.995247"
   xml:space="preserve"
   sodipodi:docname="logo-uni-rz-stud-it.svg"><metadata
     id="metadata8"><rdf:RDF><cc:Work
         rdf:about=""><dc:format>image/svg+xml</dc:format><dc:type
           rdf:resource="http://purl.org/dc/dcmitype/StillImage" /><dc:title /></cc:Work></rdf:RDF></metadata><defs
     id="defs6"><inkscape:perspective
       sodipodi:type="inkscape:persp3d"
       inkscape:vp_x="0 : 0.5 : 1"
       inkscape:vp_y="0 : 1000 : 0"
       inkscape:vp_z="1 : 0.5 : 1"
       inkscape:persp3d-origin="0.5 : 0.33333333 : 1"
       id="perspective10" /><clipPath
       clipPathUnits="userSpaceOnUse"
       id="clipPath18"><path
         d="m 41.31,736.41 533.75,0 0,78.65 -533.75,0 0,-78.65 z"
         id="path20" /></clipPath><clipPath
       clipPathUnits="userSpaceOnUse"
       id="clipPath54"><path
         d="m 367.44,733.44 221.4,0 0,32.04 -221.4,0 0,-32.04 z"
         id="path56" /></clipPath><clipPath
       clipPathUnits="userSpaceOnUse"
       id="clipPath62"><path
         d="m 367.44,733.44 221.4,0 0,32.04 -221.4,0 0,-32.04 z"
         id="path64" /></clipPath><clipPath
       clipPathUnits="userSpaceOnUse"
       id="clipPath70"><path
         d="m 367.44,733.44 221.4,0 0,32.04 -221.4,0 0,-32.04 z"
         id="path72" /></clipPath></defs><sodipodi:namedview
     pagecolor="#ffffff"
     bordercolor="#666666"
     borderopacity="1"
     objecttolerance="10"
     gridtolerance="10"
     guidetolerance="10"
     inkscape:pageopacity="0"
     inkscape:pageshadow="2"
     inkscape:window-width="1440"
     inkscape:window-height="801"
     id="namedview4"
     showgrid="false"
     showguides="true"
     inkscape:guide-bbox="true"
     inkscape:zoom="0.70710678"
     inkscape:cx="371.86477"
     inkscape:cy="240.87501"
     inkscape:window-x="0"
     inkscape:window-y="28"
     inkscape:window-maximized="1"
     inkscape:current-layer="g12"><sodipodi:guide
       orientation="1,0"
       position="408.05213,28.61452"
       id="guide3017" /><sodipodi:guide
       orientation="0,1"
       position="201.27536,2.890503"
       id="guide3069" /></sodipodi:namedview><g
     id="g12"
     inkscape:groupmode="layer"
     inkscape:label="interne Kommunikation"
     transform="matrix(1.25,0,0,-1.25,-51.6375,1018.7449)"><g
       id="g14"><g
         id="g16"
         clip-path="url(#clipPath18)"><g
           id="g22"
           transform="translate(69.8396,757.7469)"><path
             d="m 0,0 c -15.765,0 -28.589,12.826 -28.589,28.656 0,15.767 12.824,28.593 28.589,28.593 7.57,0 14.701,-2.878 20.081,-8.196 5.38,-5.319 8.383,-12.389 8.508,-19.959 l 0,-0.25 -6.631,0 0,-15.017 c 0,-2.127 -0.438,-3.816 -1.189,-4.942 -0.813,-1.127 -2.064,-1.69 -3.628,-1.69 -1.564,0 -2.69,0.563 -3.378,1.627 -0.688,1.001 -1.064,2.69 -1.064,5.005 l 0,15.017 -6.506,0 0,-15.017 C 6.193,10.073 7.132,7.195 8.946,5.318 9.822,4.38 10.885,3.691 12.199,3.254 L 12.762,3.003 12.261,2.753 C 8.383,0.939 4.254,0 0,0 m 0,56.749 c -15.514,0 -28.089,-12.577 -28.089,-28.093 0,-15.517 12.575,-28.155 28.089,-28.155 4.004,0 7.882,0.813 11.511,2.502 C 10.385,3.504 9.384,4.129 8.57,4.943 6.694,6.945 5.693,9.886 5.693,13.827 l 0,15.517 7.507,0 0,-15.517 c 0,-2.189 0.313,-3.816 0.938,-4.755 0.626,-0.938 1.627,-1.376 3.003,-1.376 1.439,0 2.502,0.5 3.19,1.501 0.751,1.001 1.127,2.566 1.127,4.63 l 0,15.517 6.631,0 C 27.713,44.485 15.139,56.749 0,56.749"
             style="fill:#000000;fill-opacity:1;fill-rule:nonzero;stroke:none"
             id="path24" /></g><g
           id="g26"
           transform="translate(120.5745,760.3748)"><path
             d="m 0,0 -7.82,0 -2.377,7.32 c -0.375,1.127 -0.813,1.877 -1.439,2.315 -0.563,0.376 -1.564,0.626 -2.815,0.626 l -0.813,0 0,-10.261 -7.32,0 0,24.777 0.501,0 0,-24.276 6.318,0 0,10.261 1.314,0 c 1.376,0 2.44,-0.251 3.128,-0.751 0.688,-0.438 1.251,-1.314 1.626,-2.503 l 2.253,-7.007 6.756,0 -3.066,8.384 c -0.813,2.315 -1.876,3.691 -3.127,4.129 l -0.814,0.313 0.814,0.188 c 1.626,0.375 2.877,1.063 3.753,2.127 0.813,1.063 1.251,2.377 1.251,4.004 0,2.253 -0.813,3.879 -2.44,4.943 -1.626,1.126 -4.066,1.627 -7.569,1.627 l -8.883,0 0,0.5 8.883,0 c 3.566,0 6.193,-0.563 7.882,-1.689 1.752,-1.189 2.628,-3.003 2.628,-5.381 0,-1.752 -0.501,-3.191 -1.377,-4.317 -0.813,-1.001 -1.939,-1.689 -3.315,-2.127 1.126,-0.689 2.064,-2.128 2.815,-4.13 l 0,-0.062 L 0,0 z m -13.012,14.891 -2.753,0 0,7.258 2.002,0 c 1.877,0 3.253,-0.313 4.129,-0.876 0.938,-0.626 1.439,-1.564 1.439,-2.816 0,-1.188 -0.438,-2.064 -1.251,-2.69 -0.814,-0.563 -2.002,-0.876 -3.566,-0.876 m -2.252,0.501 2.252,0 c 1.439,0 2.565,0.25 3.253,0.813 0.688,0.5 1.063,1.189 1.063,2.252 0,1.064 -0.438,1.877 -1.188,2.378 -0.813,0.563 -2.065,0.813 -3.879,0.813 l -1.501,0 0,-6.256 z"
             style="fill:#000000;fill-opacity:1;fill-rule:nonzero;stroke:none"
             id="path28" /></g><g
           id="g30"
           transform="translate(208.3439,740.2907)"><path
             d="m 0,0 c -0.25,0.375 -0.313,0.813 -0.313,1.251 0,0.814 0.25,1.815 1.314,1.815 1.001,0 1.314,-1.001 1.314,-1.815 0,-0.813 -0.313,-1.814 -1.314,-1.814 C 0.5,-0.563 0.188,-0.313 0,0 m -1.001,-3.379 c 0.626,-0.187 1.189,-0.312 1.752,-0.312 1.751,0 2.565,0.938 2.565,2.627 l 0,4.818 -1.001,0 0,-0.813 C 2.002,3.566 1.439,3.879 0.688,3.879 c -1.501,0 -2.064,-1.251 -2.064,-2.628 0,-1.314 0.563,-2.627 2.064,-2.627 0.688,0 1.251,0.375 1.564,0.938 l 0,-0.626 c 0,-1.126 -0.438,-1.814 -1.626,-1.814 -0.563,0 -1.064,0.125 -1.564,0.375 l -0.063,-0.876 z m -3.19,2.003 0,2.44 c 0,0.813 0.25,1.877 1.251,1.877 0.187,0 0.313,0 0.438,-0.063 l 0.062,0.939 c -0.187,0.062 -0.313,0.062 -0.438,0.062 -0.688,0 -1.188,-0.563 -1.376,-1.064 l -0.063,0.939 -0.938,0 c 0,-0.375 0.063,-0.751 0.063,-1.126 l 0,-4.004 1.001,0 z m -6.256,5.13 -1.001,0 0,-3.191 c 0,-1.189 0.438,-2.002 1.689,-2.002 0.751,0 1.314,0.313 1.689,0.938 l 0,-0.875 1.001,0 c -0.063,0.437 -0.063,0.813 -0.063,1.188 l 0,3.942 -1.063,0 0,-2.753 c 0,-0.813 -0.25,-1.627 -1.189,-1.627 -0.876,0 -1.063,0.689 -1.063,1.377 l 0,3.003 z M -16.515,0 c -0.188,0.375 -0.251,0.813 -0.251,1.251 0,0.814 0.313,1.815 1.314,1.815 1.064,0 1.251,-1.001 1.251,-1.815 0,-0.876 -0.25,-1.939 -1.251,-1.939 -0.5,0 -0.876,0.313 -1.063,0.688 m -0.313,-1.376 0,0.875 c 0.375,-0.625 0.938,-0.938 1.626,-0.938 1.564,0 2.127,1.314 2.127,2.69 0,1.377 -0.563,2.628 -2.127,2.628 -0.625,0 -1.313,-0.313 -1.564,-0.938 l 0,3.128 -1.001,0 0,-7.445 0.939,0 z m -5.943,0.125 c 0.5,-0.188 0.938,-0.188 1.439,-0.188 0.938,0 1.939,0.438 1.939,1.564 0,1.689 -2.315,1.377 -2.315,2.378 0,0.563 0.438,0.625 0.939,0.625 0.375,0 0.75,-0.062 1.126,-0.187 l 0.062,0.75 c -0.375,0.126 -0.813,0.188 -1.251,0.188 -0.938,0 -1.877,-0.313 -1.877,-1.439 0,-1.564 2.315,-1.251 2.315,-2.377 0,-0.564 -0.438,-0.814 -1.001,-0.814 -0.5,0 -0.876,0.125 -1.314,0.313 l -0.062,-0.813 z m -4.88,-0.125 0,2.815 c 0,0.813 0.313,1.627 1.251,1.627 0.876,0 1.001,-0.688 1.001,-1.377 l 0,-3.065 1.064,0 0,3.253 c 0,1.189 -0.501,2.002 -1.752,2.002 -0.751,0 -1.314,-0.313 -1.689,-1.001 l 0,0.876 -0.938,0 0,-1.126 0,-4.004 1.063,0 z m -2.627,2.377 0,0.313 c 0,1.439 -0.563,2.565 -2.127,2.565 -1.502,0 -2.377,-1.251 -2.377,-2.628 0,-1.626 0.875,-2.69 2.627,-2.69 0.563,0 1.126,0.063 1.564,0.25 l -0.063,0.751 c -0.375,-0.188 -0.875,-0.313 -1.376,-0.313 -1.126,0 -1.689,0.814 -1.689,1.752 l 3.441,0 z m -3.441,0.626 c 0,0.751 0.438,1.564 1.314,1.564 0.938,0 1.126,-0.813 1.126,-1.564 l -2.44,0 z M -39.725,0 c -0.187,0.375 -0.25,0.813 -0.25,1.251 0,0.814 0.188,1.815 1.251,1.815 1.001,0 1.314,-1.001 1.314,-1.815 0,-0.813 -0.313,-1.814 -1.314,-1.814 -0.5,0 -0.813,0.25 -1.001,0.563 m -1.001,-3.379 c 0.626,-0.187 1.189,-0.312 1.752,-0.312 1.752,0 2.565,0.938 2.565,2.627 l 0,4.818 -1.001,0 0,-0.813 c -0.313,0.625 -0.876,0.938 -1.626,0.938 -1.502,0 -2.065,-1.251 -2.065,-2.628 0,-1.314 0.563,-2.627 2.065,-2.627 0.688,0 1.251,0.375 1.626,0.938 l 0,-0.626 c 0,-1.126 -0.5,-1.814 -1.689,-1.814 -0.563,0 -1.064,0.125 -1.564,0.375 l -0.063,-0.876 z m -1.689,4.38 0,0.313 c 0,1.439 -0.563,2.565 -2.189,2.565 -1.439,0 -2.315,-1.251 -2.315,-2.628 0,-1.626 0.876,-2.69 2.628,-2.69 0.563,0 1.063,0.063 1.564,0.25 l -0.063,0.751 c -0.375,-0.188 -0.938,-0.313 -1.376,-0.313 -1.126,0 -1.689,0.814 -1.689,1.752 l 3.44,0 z m -3.503,0.626 c 0.063,0.751 0.501,1.564 1.314,1.564 0.938,0 1.188,-0.813 1.188,-1.564 l -2.502,0 z m -5.943,-3.003 0,3.065 0.563,0 c 0.688,0 0.938,-0.187 1.189,-0.938 l 0.876,-2.127 1.188,0 -1.001,2.502 c -0.187,0.501 -0.5,0.876 -1.001,0.939 0.876,0.125 1.564,0.75 1.564,1.689 0,1.439 -1.251,1.752 -2.44,1.752 l -2.064,0 0,-6.882 1.126,0 z m 0,6.069 0.751,0 c 0.813,0 1.501,-0.188 1.501,-1.064 0,-0.876 -0.813,-1.126 -1.564,-1.126 l -0.688,0 0,2.19 z m -6.068,-5.194 c -0.188,-0.125 -0.375,-0.125 -0.563,-0.125 -0.501,0 -0.626,0.376 -0.626,0.814 l 0,2.878 1.189,0 0,0.688 -1.189,0 0,1.502 -1.001,-0.376 0,-1.126 -0.938,0 0,-0.688 0.938,0 0,-2.753 c 0,-1.001 0.188,-1.752 1.252,-1.752 0.312,0 0.688,0.063 1,0.125 l -0.062,0.813 z m -6.882,6.32 -0.876,0 0,-1.001 0.876,0 0,1.001 z m 1.752,0 -0.813,0 0,-1.001 0.813,0 0,1.001 z m 0.751,-7.195 c -0.063,0.375 -0.063,0.75 -0.063,1.188 l 0,2.128 c 0,1.376 -0.75,1.939 -2.127,1.939 -0.5,0 -1.126,-0.125 -1.626,-0.313 l 0.062,-0.813 c 0.438,0.313 1.001,0.438 1.502,0.438 0.813,0 1.188,-0.438 1.188,-1.189 l 0,-0.188 -0.563,0 c -1.564,0 -2.752,-0.438 -2.752,-1.751 0,-1.064 0.813,-1.502 1.689,-1.502 0.75,0 1.314,0.313 1.626,0.876 l 0.063,-0.813 1.001,0 z m -1.064,2.565 0,-0.313 c 0,-0.876 -0.438,-1.564 -1.376,-1.564 -0.5,0 -0.938,0.25 -0.938,0.813 0,0.876 1.001,1.064 2.002,1.064 l 0.312,0 z m -4.504,-1.69 c -0.188,-0.125 -0.375,-0.125 -0.563,-0.125 -0.563,0 -0.688,0.376 -0.688,0.814 l 0,2.878 1.189,0 0,0.688 -1.189,0 0,1.502 -1.001,-0.376 0,-1.126 -0.938,0 0,-0.688 0.938,0 0,-2.753 c 0,-1.001 0.188,-1.752 1.314,-1.752 0.313,0 0.625,0.063 0.938,0.125 l 0,0.813 z m -4.567,4.255 -1.063,0 0,-5.13 1.063,0 0,5.13 z m 0,2.065 -1.063,0 0,-1.001 1.063,0 0,1.001 z m -6.068,-7.07 c 0.501,-0.188 0.939,-0.188 1.439,-0.188 0.938,0 1.939,0.438 1.939,1.564 0,1.689 -2.314,1.377 -2.314,2.378 0,0.563 0.5,0.625 0.938,0.625 0.375,0 0.751,-0.062 1.126,-0.187 l 0.063,0.75 c -0.376,0.126 -0.814,0.188 -1.252,0.188 -0.875,0 -1.876,-0.313 -1.876,-1.439 0,-1.564 2.314,-1.251 2.314,-2.377 0,-0.564 -0.438,-0.814 -1.001,-0.814 -0.437,0 -0.875,0.125 -1.313,0.313 l -0.063,-0.813 z m -2.878,-0.125 0,2.44 c 0,0.813 0.251,1.877 1.252,1.877 0.125,0 0.312,0 0.438,-0.063 l 0.062,0.939 c -0.188,0.062 -0.313,0.062 -0.438,0.062 -0.688,0 -1.188,-0.563 -1.439,-1.064 l 0,0.939 -1.001,0 c 0.063,-0.375 0.063,-0.751 0.063,-1.126 l 0,-4.004 1.063,0 z m -2.627,2.377 0,0.313 c 0,1.439 -0.563,2.565 -2.127,2.565 -1.501,0 -2.377,-1.251 -2.377,-2.628 0,-1.626 0.876,-2.69 2.627,-2.69 0.563,0 1.126,0.063 1.564,0.25 l -0.062,0.751 c -0.376,-0.188 -0.876,-0.313 -1.377,-0.313 -1.126,0 -1.689,0.814 -1.689,1.752 l 3.441,0 z m -3.441,0.626 c 0,0.751 0.438,1.564 1.314,1.564 0.876,0 1.126,-0.813 1.126,-1.564 l -2.44,0 z m -3.691,-3.003 1.689,5.13 -1,0 -1.252,-4.255 -1.251,4.255 -1.126,0 1.689,-5.13 1.251,0 z m -4.254,5.13 -1.063,0 0,-5.13 1.063,0 0,5.13 z m 0,2.065 -1.063,0 0,-1.001 1.063,0 0,1.001 z m -6.255,-7.195 0,2.815 c 0,0.813 0.312,1.627 1.251,1.627 0.876,0 1.001,-0.688 1.001,-1.377 l 0,-3.065 1.063,0 0,3.253 c 0,1.189 -0.5,2.002 -1.751,2.002 -0.751,0 -1.314,-0.313 -1.627,-1.001 l -0.063,0.876 -0.938,0 0,-1.126 0,-4.004 1.064,0 z m -7.32,6.882 -1.126,0 0,-4.38 c 0,-1.689 1.126,-2.565 2.69,-2.565 1.627,0 2.753,0.938 2.753,2.565 l 0,4.38 -1.126,0 0,-4.38 c 0,-1.001 -0.501,-1.689 -1.564,-1.689 -1.064,0 -1.627,0.688 -1.627,1.689 l 0,4.38 z"
             style="fill:#000000;fill-opacity:1;fill-rule:nonzero;stroke:none"
             id="path32" /></g><g
           id="g34"
           transform="translate(364.9277,786.5279)"><path
             d="m 0,0 -224.147,0 0,28.468 0.501,0 0,-27.967 L 0,0.501 0,0 z"
             style="fill:#000000;fill-opacity:1;fill-rule:nonzero;stroke:none"
             id="path36" /></g><g
           id="g38"
           transform="translate(574.8738,786.5279)"><path
             d="m 0,0 -207.131,0 0,28.468 0.501,0 0,-27.967 L 0,0.501 0,0 z"
             style="fill:#000000;fill-opacity:1;fill-rule:nonzero;stroke:none"
             id="path40" /></g></g></g><text
       transform="matrix(1,0,0,-1,367.44,760.08)"
       id="text42"
       style="font-style:normal;font-variant:normal;font-weight:normal;font-stretch:normal;font-family:Frutiger Next LT W1G;-inkscape-font-specification:Frutiger Next LT W1G"><tspan
         style="font-size:8px;font-style:normal;font-variant:normal;font-weight:normal;font-stretch:normal;writing-mode:lr-tb;fill:#000000;fill-opacity:1;fill-rule:nonzero;stroke:none;font-family:Frutiger Next LT W1G;-inkscape-font-specification:Frutiger Next LT W1G"
         sodipodi:role="line"
         x="0"
         y="0"
         id="tspan3019" /></text>
<g
       id="g50"><g
         id="g52"
         clip-path="url(#clipPath54)" /></g><g
       id="g58"><g
         id="g60"
         clip-path="url(#clipPath62)" /></g><g
       id="g66"><g
         id="g68"
         clip-path="url(#clipPath70)" /></g><text
       transform="matrix(1,0,0,-1,157.45152,203.7648)"
       id="text152"><tspan
         style="font-size:11.03999996px;font-variant:normal;font-weight:normal;font-stretch:normal;writing-mode:lr-tb;fill:#000000;fill-opacity:1;fill-rule:nonzero;stroke:none;font-family:Wingdings;-inkscape-font-specification:Wingdings-Regular"
         x="0"
         y="0"
         id="tspan154"></tspan></text>
<text
       transform="matrix(1,0,0,-1,260.05728,203.7648)"
       id="text160"><tspan
         style="font-size:11.03999996px;font-variant:normal;font-weight:normal;font-stretch:normal;writing-mode:lr-tb;fill:#000000;fill-opacity:1;fill-rule:nonzero;stroke:none;font-family:Wingdings;-inkscape-font-specification:Wingdings-Regular"
         x="0"
         y="0"
         id="tspan162"></tspan></text>
<text
       xml:space="preserve"
       style="font-size:32px;font-style:normal;font-weight:normal;line-height:125%;letter-spacing:0px;word-spacing:0px;fill:#000000;fill-opacity:1;stroke:none;font-family:Sans"
       x="367.36456"
       y="-750.62445"
       id="text3034"
       sodipodi:linespacing="125%"
       transform="scale(1,-1)"><tspan
         sodipodi:role="line"
         x="367.36456"
         y="-750.62445"
         style="font-size:8.80000019px;font-style:normal;font-variant:normal;font-weight:normal;font-stretch:normal;text-align:start;line-height:125%;writing-mode:lr-tb;text-anchor:start;font-family:Frutiger Next LT W1G;-inkscape-font-specification:Frutiger Next LT W1G"
         id="tspan3043">Abteilung I – Dienste</tspan></text>
<text
       xml:space="preserve"
       style="font-size:8.8px;font-style:normal;font-weight:bold;line-height:125%;letter-spacing:0px;word-spacing:0px;fill:#000000;fill-opacity:1;stroke:none;font-family:Sans;-inkscape-font-specification:Sans Bold;font-stretch:normal;font-variant:normal;text-anchor:start;text-align:start;writing-mode:lr"
       x="367.13507"
       y="-738.91211"
       id="text3046"
       sodipodi:linespacing="125%"
       transform="scale(1,-1)"><tspan
         sodipodi:role="line"
         id="tspan3048"
         x="367.13507"
         y="-738.91211"
         style="font-size:8.80000000000000071px;-inkscape-font-specification:Frutiger Next LT W1G;font-family:Frutiger Next LT W1G;font-weight:normal;font-style:normal;font-stretch:normal;font-variant:normal;text-anchor:start;text-align:start;writing-mode:lr;line-height:125%">Studienbegleitende IT-Ausbildung</tspan></text>
<text
       xml:space="preserve"
       style="font-size:32px;font-style:normal;font-weight:normal;line-height:125%;letter-spacing:0px;word-spacing:0px;fill:#000000;fill-opacity:1;stroke:none;font-family:Sans"
       x="367.11734"
       y="-762.83582"
       id="text3034-8"
       sodipodi:linespacing="125%"
       transform="scale(1,-1)"><tspan
         sodipodi:role="line"
         x="367.11734"
         y="-762.83582"
         id="tspan3040-9"
         style="font-size:8.80000019000000044px;font-style:normal;font-variant:normal;font-weight:normal;font-stretch:normal;text-align:start;line-height:125%;writing-mode:lr-tb;text-anchor:start;font-family:Frutiger Next LT W1G;-inkscape-font-specification:Frutiger Next LT W1G">Rechenzentrum</tspan></text>
</g></svg>